<svg width="372" height="122" viewBox="0 0 372 122" fill="none" xmlns="http://www.w3.org/2000/svg">
<path d="M37.5326 0.000581344C37.6744 0.000870024 37.8163 0.0011587 37.9624 0.00144739C40.0637 0.00794272 42.1083 0.0814124 44.1758 0.478638C44.3732 0.513569 44.3732 0.513569 44.5745 0.549076C53.3432 2.11128 61.7753 7.02725 67.1936 14.0467C67.2547 14.1248 67.3158 14.2027 67.3785 14.2831C68.5053 15.7258 69.4937 17.2356 70.4188 18.8099C70.4767 18.9078 70.5346 19.0055 70.594 19.1063C72.527 22.4143 73.7885 26.1058 74.5698 29.8341C74.5914 29.9366 74.613 30.0392 74.6352 30.1449C75.0732 32.4027 75.1656 34.6597 75.1564 36.9519C75.1559 37.0916 75.1559 37.2315 75.1554 37.3755C75.1478 39.4419 75.091 41.4612 74.6709 43.4922C74.6406 43.6405 74.6109 43.7886 74.5801 43.9411C73.5187 49.0773 71.5224 54.1037 68.3664 58.3595C68.308 58.4383 68.2496 58.5176 68.1895 58.5991C67.7732 59.1554 67.3417 59.6984 66.9005 60.2356C66.8367 60.3139 66.7729 60.3916 66.7075 60.4715C64.4003 63.2638 61.7844 65.487 58.8366 67.5973C64.2073 67.6447 366.467 67.5483 372 67.5973C372 69.6453 372 71.6934 372 73.8037C366.865 73.8139 64.841 73.9656 59.706 73.9704C59.0983 73.9709 58.49 73.9714 57.8822 73.972C57.7006 73.972 57.7006 73.972 57.5156 73.9725C55.5632 73.9741 53.6104 73.9778 51.6578 73.9815C49.6504 73.9858 47.6429 73.9879 45.6355 73.989C44.3993 73.9895 43.1632 73.9917 41.9271 73.9949C41.0765 73.997 40.2259 73.998 39.3752 73.9975C38.8863 73.997 38.3975 73.9975 37.9087 73.9996C27.2479 74.0438 17.8855 69.9594 10.3549 62.6175C9.49681 61.7705 8.69923 60.9006 7.96323 59.9471C7.90224 59.8693 7.84114 59.7911 7.77821 59.7107C6.65183 58.268 5.66321 56.7581 4.73784 55.1839C4.68007 55.0859 4.62231 54.9885 4.56279 54.8879C2.63003 51.5797 1.36846 47.8881 0.58703 44.16C0.565478 44.0573 0.54378 43.9547 0.521494 43.849C0.0838638 41.5911 -0.00849929 39.3343 0.000590486 37.042C0.000883701 36.9025 0.00117644 36.7628 0.00146966 36.619C0.0080671 34.5502 0.0826911 32.5372 0.486161 30.5015C0.521641 30.3074 0.521641 30.3074 0.557708 30.1092C2.14446 21.4762 7.1377 13.1746 14.2674 7.84003C14.3468 7.77997 14.426 7.71976 14.5076 7.65785C15.973 6.54891 17.5065 5.57562 19.1056 4.66452C19.205 4.60766 19.3043 4.55078 19.4066 4.49218C22.7666 2.58934 26.5161 1.34728 30.303 0.577947C30.4071 0.556726 30.5114 0.535362 30.6187 0.513424C32.9121 0.0825672 35.2043 -0.00836778 37.5326 0.000581344ZM30.8344 9.13908C30.7419 9.22756 30.6492 9.31593 30.5537 9.40697C28.8356 11.1545 28.2691 13.4663 28.2908 15.8227C28.3555 18.2285 29.4055 20.4185 31.1276 22.1298C33.2909 23.9974 35.7199 24.7802 38.5702 24.6142C40.9658 24.391 43.1 23.1944 44.6862 21.4385C46.5393 19.1221 47.0406 16.7821 46.8148 13.9023C46.4637 11.4606 44.9687 9.54512 43.0947 8.00256C39.2625 5.25488 34.0649 5.81088 30.8344 9.13908ZM9.77419 24.1821C8.1707 26.0493 7.25146 28.4078 7.4095 30.8647C7.67282 33.3112 8.61699 35.5155 10.4666 37.2068C12.7825 39.0381 15.3141 39.6751 18.2259 39.4507C20.617 39.1236 22.7974 37.7415 24.2558 35.8761C25.7948 33.5855 26.3711 31.1633 25.9444 28.4376C25.4309 26.046 23.8962 23.9594 21.8545 22.5989C17.8506 20.2326 13.0026 20.8322 9.77419 24.1821ZM51.3461 24.2516C49.4447 26.5108 48.9182 28.9322 49.1606 31.8006C49.2345 32.3761 49.3703 32.8553 49.6004 33.3883C49.6375 33.4752 49.6746 33.562 49.7128 33.6513C50.7766 36.0825 52.3999 37.8218 54.9149 38.8638C55.1144 38.94 55.1144 38.94 55.3182 39.0176C55.4361 39.064 55.554 39.1103 55.6756 39.1581C58.0542 39.9448 60.6912 39.4957 62.8869 38.4313C65.047 37.214 66.5712 35.3994 67.3444 33.0569C68.0149 30.543 67.8186 28.018 66.5064 25.7204C65.1233 23.5886 63.0572 21.9964 60.5576 21.3411C57.1058 20.6768 53.7777 21.7249 51.3461 24.2516ZM35.2326 34.9761C34.6635 35.7545 34.4599 36.467 34.4996 37.4299C34.7061 38.3865 35.1778 39.0597 35.9842 39.6311C36.7195 40.011 37.5326 40.1298 38.3471 39.9594C39.2643 39.6493 39.9346 39.1665 40.3945 38.3033C40.7002 37.5249 40.7595 36.7339 40.4832 35.9415C40.0837 35.0647 39.5291 34.462 38.6047 34.1101C37.309 33.8042 36.1903 34.0334 35.2326 34.9761ZM17.6762 48.3368C15.8907 50.3887 15.2412 52.8947 15.4031 55.5459C15.6257 57.6914 16.7692 59.7959 18.3725 61.2461C20.7136 63.0881 23.1749 63.7956 26.1428 63.5555C28.7107 63.1312 30.8955 61.7076 32.438 59.6676C33.3528 58.2882 33.928 56.6809 34.0597 55.0396C34.0718 54.898 34.0718 54.898 34.084 54.7537C34.1798 52.4637 33.3135 50.1788 31.7873 48.463C31.5705 48.2465 31.3507 48.0328 31.1276 47.8224C31.0412 47.7329 30.9549 47.6434 30.8659 47.5514C29.2504 45.9888 26.9008 45.2441 24.6746 45.2047C21.9124 45.2979 19.6011 46.4057 17.6762 48.3368ZM43.736 48.1111C43.6451 48.1963 43.5542 48.2813 43.4607 48.3689C41.8899 49.943 41.1265 52.2513 41.0513 54.4173C41.1702 57.0281 42.177 59.4253 44.1088 61.2365C44.7237 61.746 45.3857 62.1532 46.0818 62.5451C46.1813 62.6031 46.2807 62.6611 46.383 62.7207C48.3611 63.7914 50.8171 63.8382 52.9724 63.3213C55.4977 62.5557 57.4913 60.9538 58.7728 58.6736C58.9615 58.2855 59.1242 57.8969 59.2767 57.4934C59.3232 57.3778 59.3702 57.2618 59.4184 57.1425C60.2213 54.8033 59.7612 52.2019 58.6808 50.0419C57.4594 47.9469 55.5767 46.3619 53.225 45.6152C49.7103 44.7165 46.2666 45.5084 43.736 48.1111Z" fill="#FAFAFA"/>
<path d="M85.65 40.4C85.65 36.9333 86.4 33.85 87.9 31.15C89.4 28.4167 91.4833 26.3 94.15 24.8C96.85 23.2667 99.9 22.5 103.3 22.5C107.467 22.5 111.033 23.6 114 25.8C116.967 28 118.95 31 119.95 34.8H110.55C109.85 33.3333 108.85 32.2167 107.55 31.45C106.283 30.6833 104.833 30.3 103.2 30.3C100.567 30.3 98.4333 31.2167 96.8 33.05C95.1667 34.8833 94.35 37.3333 94.35 40.4C94.35 43.4667 95.1667 45.9167 96.8 47.75C98.4333 49.5833 100.567 50.5 103.2 50.5C104.833 50.5 106.283 50.1167 107.55 49.35C108.85 48.5833 109.85 47.4667 110.55 46H119.95C118.95 49.8 116.967 52.8 114 55C111.033 57.1667 107.467 58.25 103.3 58.25C99.9 58.25 96.85 57.5 94.15 56C91.4833 54.4667 89.4 52.35 87.9 49.65C86.4 46.95 85.65 43.8667 85.65 40.4ZM133.736 22.9V58H125.186V22.9H133.736ZM171.332 58H162.782L148.482 36.35V58H139.932V22.9H148.482L162.782 44.65V22.9H171.332V58ZM186.08 29.75V36.85H197.53V43.45H186.08V51.15H199.03V58H177.53V22.9H199.03V29.75H186.08ZM213.13 51.4H224.33V58H204.58V22.9H213.13V51.4ZM236.959 29.75V36.85H248.409V43.45H236.959V51.15H249.909V58H228.409V22.9H249.909V29.75H236.959ZM277.309 51.8H264.209L262.109 58H253.159L265.859 22.9H275.759L288.459 58H279.409L277.309 51.8ZM275.109 45.2L270.759 32.35L266.459 45.2H275.109ZM310.225 58L302.925 44.75H300.875V58H292.325V22.9H306.675C309.441 22.9 311.791 23.3833 313.725 24.35C315.691 25.3167 317.158 26.65 318.125 28.35C319.091 30.0167 319.575 31.8833 319.575 33.95C319.575 36.2833 318.908 38.3667 317.575 40.2C316.275 42.0333 314.341 43.3333 311.775 44.1L319.875 58H310.225ZM300.875 38.7H306.175C307.741 38.7 308.908 38.3167 309.675 37.55C310.475 36.7833 310.875 35.7 310.875 34.3C310.875 32.9667 310.475 31.9167 309.675 31.15C308.908 30.3833 307.741 30 306.175 30H300.875V38.7ZM356.342 58H347.792L333.492 36.35V58H324.942V22.9H333.492L347.792 44.65V22.9H356.342V58Z" fill="#FAFAFA"/>
<path d="M201.388 92.756C201.988 91.82 202.816 91.064 203.872 90.488C204.928 89.912 206.164 89.624 207.58 89.624C209.236 89.624 210.736 90.044 212.08 90.884C213.424 91.724 214.48 92.924 215.248 94.484C216.04 96.044 216.436 97.856 216.436 99.92C216.436 101.984 216.04 103.808 215.248 105.392C214.48 106.952 213.424 108.164 212.08 109.028C210.736 109.868 209.236 110.288 207.58 110.288C206.188 110.288 204.952 110 203.872 109.424C202.816 108.848 201.988 108.104 201.388 107.192V119.576H195.232V89.912H201.388V92.756ZM210.172 99.92C210.172 98.384 209.74 97.184 208.876 96.32C208.036 95.432 206.992 94.988 205.744 94.988C204.52 94.988 203.476 95.432 202.612 96.32C201.772 97.208 201.352 98.42 201.352 99.956C201.352 101.492 201.772 102.704 202.612 103.592C203.476 104.48 204.52 104.924 205.744 104.924C206.968 104.924 208.012 104.48 208.876 103.592C209.74 102.68 210.172 101.456 210.172 99.92ZM225.822 93.26C226.542 92.156 227.442 91.292 228.522 90.668C229.602 90.02 230.802 89.696 232.122 89.696V96.212H230.43C228.894 96.212 227.742 96.548 226.974 97.22C226.206 97.868 225.822 99.02 225.822 100.676V110H219.666V89.912H225.822V93.26ZM244.208 110.288C242.24 110.288 240.464 109.868 238.88 109.028C237.32 108.188 236.084 106.988 235.172 105.428C234.284 103.868 233.84 102.044 233.84 99.956C233.84 97.892 234.296 96.08 235.208 94.52C236.12 92.936 237.368 91.724 238.952 90.884C240.536 90.044 242.312 89.624 244.28 89.624C246.248 89.624 248.024 90.044 249.608 90.884C251.192 91.724 252.44 92.936 253.352 94.52C254.264 96.08 254.72 97.892 254.72 99.956C254.72 102.02 254.252 103.844 253.316 105.428C252.404 106.988 251.144 108.188 249.536 109.028C247.952 109.868 246.176 110.288 244.208 110.288ZM244.208 104.96C245.384 104.96 246.38 104.528 247.196 103.664C248.036 102.8 248.456 101.564 248.456 99.956C248.456 98.348 248.048 97.112 247.232 96.248C246.44 95.384 245.456 94.952 244.28 94.952C243.08 94.952 242.084 95.384 241.292 96.248C240.5 97.088 240.104 98.324 240.104 99.956C240.104 101.564 240.488 102.8 241.256 103.664C242.048 104.528 243.032 104.96 244.208 104.96ZM268.066 95.024H264.754V110H258.598V95.024H256.366V89.912H258.598V89.336C258.598 86.864 259.306 84.992 260.722 83.72C262.138 82.424 264.214 81.776 266.95 81.776C267.406 81.776 267.742 81.788 267.958 81.812V87.032C266.782 86.96 265.954 87.128 265.474 87.536C264.994 87.944 264.754 88.676 264.754 89.732V89.912H268.066V95.024ZM289.895 99.632C289.895 100.208 289.859 100.808 289.787 101.432H275.855C275.951 102.68 276.347 103.64 277.043 104.312C277.763 104.96 278.639 105.284 279.671 105.284C281.207 105.284 282.275 104.636 282.875 103.34H289.427C289.091 104.66 288.479 105.848 287.591 106.904C286.727 107.96 285.635 108.788 284.315 109.388C282.995 109.988 281.519 110.288 279.887 110.288C277.919 110.288 276.167 109.868 274.631 109.028C273.095 108.188 271.895 106.988 271.031 105.428C270.167 103.868 269.735 102.044 269.735 99.956C269.735 97.868 270.155 96.044 270.995 94.484C271.859 92.924 273.059 91.724 274.595 90.884C276.131 90.044 277.895 89.624 279.887 89.624C281.831 89.624 283.559 90.032 285.071 90.848C286.583 91.664 287.759 92.828 288.599 94.34C289.463 95.852 289.895 97.616 289.895 99.632ZM283.595 98.012C283.595 96.956 283.235 96.116 282.515 95.492C281.795 94.868 280.895 94.556 279.815 94.556C278.783 94.556 277.907 94.856 277.187 95.456C276.491 96.056 276.059 96.908 275.891 98.012H283.595ZM301.314 110.288C299.562 110.288 298.002 109.988 296.634 109.388C295.266 108.788 294.186 107.972 293.394 106.94C292.602 105.884 292.158 104.708 292.062 103.412H298.146C298.218 104.108 298.542 104.672 299.118 105.104C299.694 105.536 300.402 105.752 301.242 105.752C302.01 105.752 302.598 105.608 303.006 105.32C303.438 105.008 303.654 104.612 303.654 104.132C303.654 103.556 303.354 103.136 302.754 102.872C302.154 102.584 301.182 102.272 299.838 101.936C298.398 101.6 297.198 101.252 296.238 100.892C295.278 100.508 294.45 99.92 293.754 99.128C293.058 98.312 292.71 97.22 292.71 95.852C292.71 94.7 293.022 93.656 293.646 92.72C294.294 91.76 295.23 91.004 296.454 90.452C297.702 89.9 299.178 89.624 300.882 89.624C303.402 89.624 305.382 90.248 306.822 91.496C308.286 92.744 309.126 94.4 309.342 96.464H303.654C303.558 95.768 303.246 95.216 302.718 94.808C302.214 94.4 301.542 94.196 300.702 94.196C299.982 94.196 299.43 94.34 299.046 94.628C298.662 94.892 298.47 95.264 298.47 95.744C298.47 96.32 298.77 96.752 299.37 97.04C299.994 97.328 300.954 97.616 302.25 97.904C303.738 98.288 304.95 98.672 305.886 99.056C306.822 99.416 307.638 100.016 308.334 100.856C309.054 101.672 309.426 102.776 309.45 104.168C309.45 105.344 309.114 106.4 308.442 107.336C307.794 108.248 306.846 108.968 305.598 109.496C304.374 110.024 302.946 110.288 301.314 110.288ZM321.388 110.288C319.636 110.288 318.076 109.988 316.708 109.388C315.34 108.788 314.26 107.972 313.468 106.94C312.676 105.884 312.232 104.708 312.136 103.412H318.22C318.292 104.108 318.616 104.672 319.192 105.104C319.768 105.536 320.476 105.752 321.316 105.752C322.084 105.752 322.672 105.608 323.08 105.32C323.512 105.008 323.728 104.612 323.728 104.132C323.728 103.556 323.428 103.136 322.828 102.872C322.228 102.584 321.256 102.272 319.912 101.936C318.472 101.6 317.272 101.252 316.312 100.892C315.352 100.508 314.524 99.92 313.828 99.128C313.132 98.312 312.784 97.22 312.784 95.852C312.784 94.7 313.096 93.656 313.72 92.72C314.368 91.76 315.304 91.004 316.528 90.452C317.776 89.9 319.252 89.624 320.956 89.624C323.476 89.624 325.456 90.248 326.896 91.496C328.36 92.744 329.2 94.4 329.416 96.464H323.728C323.632 95.768 323.32 95.216 322.792 94.808C322.288 94.4 321.616 94.196 320.776 94.196C320.056 94.196 319.504 94.34 319.12 94.628C318.736 94.892 318.544 95.264 318.544 95.744C318.544 96.32 318.844 96.752 319.444 97.04C320.068 97.328 321.028 97.616 322.324 97.904C323.812 98.288 325.024 98.672 325.96 99.056C326.896 99.416 327.712 100.016 328.408 100.856C329.128 101.672 329.5 102.776 329.524 104.168C329.524 105.344 329.188 106.4 328.516 107.336C327.868 108.248 326.92 108.968 325.672 109.496C324.448 110.024 323.02 110.288 321.388 110.288ZM342.435 110.288C340.467 110.288 338.691 109.868 337.107 109.028C335.547 108.188 334.311 106.988 333.399 105.428C332.511 103.868 332.067 102.044 332.067 99.956C332.067 97.892 332.523 96.08 333.435 94.52C334.347 92.936 335.595 91.724 337.179 90.884C338.763 90.044 340.539 89.624 342.507 89.624C344.475 89.624 346.251 90.044 347.835 90.884C349.419 91.724 350.667 92.936 351.579 94.52C352.491 96.08 352.947 97.892 352.947 99.956C352.947 102.02 352.479 103.844 351.543 105.428C350.631 106.988 349.371 108.188 347.763 109.028C346.179 109.868 344.403 110.288 342.435 110.288ZM342.435 104.96C343.611 104.96 344.607 104.528 345.423 103.664C346.263 102.8 346.683 101.564 346.683 99.956C346.683 98.348 346.275 97.112 345.459 96.248C344.667 95.384 343.683 94.952 342.507 94.952C341.307 94.952 340.311 95.384 339.519 96.248C338.727 97.088 338.331 98.324 338.331 99.956C338.331 101.564 338.715 102.8 339.483 103.664C340.275 104.528 341.259 104.96 342.435 104.96ZM362.368 93.26C363.088 92.156 363.988 91.292 365.068 90.668C366.148 90.02 367.348 89.696 368.668 89.696V96.212H366.976C365.44 96.212 364.288 96.548 363.52 97.22C362.752 97.868 362.368 99.02 362.368 100.676V110H356.212V89.912H362.368V93.26Z" fill="#FAFAFA"/>
</svg>
