<svg width="372" height="74" viewBox="0 0 372 74" fill="none" xmlns="http://www.w3.org/2000/svg">
<path d="M37.5326 0.000581344C37.6744 0.000870024 37.8163 0.0011587 37.9624 0.00144739C40.0637 0.00794272 42.1083 0.0814124 44.1758 0.478638C44.3732 0.513569 44.3732 0.513569 44.5745 0.549076C53.3432 2.11128 61.7753 7.02725 67.1936 14.0467C67.2547 14.1248 67.3158 14.2027 67.3785 14.2831C68.5053 15.7258 69.4937 17.2356 70.4188 18.8099C70.4767 18.9078 70.5346 19.0055 70.594 19.1063C72.527 22.4143 73.7885 26.1058 74.5698 29.8341C74.5914 29.9366 74.613 30.0392 74.6352 30.1449C75.0732 32.4027 75.1656 34.6597 75.1564 36.9519C75.1559 37.0916 75.1559 37.2315 75.1554 37.3755C75.1478 39.4419 75.091 41.4612 74.6709 43.4922C74.6406 43.6405 74.6109 43.7886 74.5801 43.9411C73.5187 49.0773 71.5224 54.1037 68.3664 58.3595C68.308 58.4383 68.2496 58.5176 68.1895 58.5991C67.7732 59.1554 67.3417 59.6984 66.9005 60.2356C66.8367 60.3139 66.7729 60.3916 66.7075 60.4715C64.4003 63.2638 61.7844 65.487 58.8366 67.5973C64.2073 67.6447 366.467 67.5483 372 67.5973C372 69.6453 372 71.6934 372 73.8037C366.865 73.8138 64.841 73.9656 59.706 73.9704C59.0983 73.9709 58.49 73.9714 57.8822 73.972C57.7006 73.972 57.7006 73.972 57.5156 73.9725C55.5632 73.9741 53.6104 73.9778 51.6578 73.9815C49.6504 73.9858 47.6429 73.9879 45.6355 73.989C44.3993 73.9895 43.1632 73.9917 41.9271 73.9949C41.0765 73.997 40.2259 73.998 39.3752 73.9975C38.8863 73.997 38.3975 73.9975 37.9087 73.9996C27.2479 74.0438 17.8855 69.9595 10.3549 62.6175C9.49681 61.7705 8.69923 60.9005 7.96323 59.9471C7.90224 59.8693 7.84114 59.7911 7.77821 59.7107C6.65183 58.268 5.66321 56.7581 4.73784 55.1839C4.68007 55.0859 4.62231 54.9885 4.56279 54.8879C2.63003 51.5797 1.36846 47.8881 0.58703 44.16C0.565478 44.0573 0.54378 43.9547 0.521494 43.849C0.0838638 41.5911 -0.00849929 39.3343 0.000590486 37.042C0.000883701 36.9025 0.00117644 36.7628 0.00146966 36.619C0.0080671 34.5502 0.0826911 32.5372 0.486161 30.5015C0.521641 30.3074 0.521641 30.3074 0.557708 30.1092C2.14446 21.4762 7.1377 13.1746 14.2674 7.84003C14.3468 7.77997 14.426 7.71976 14.5076 7.65785C15.973 6.54891 17.5065 5.57562 19.1056 4.66452C19.205 4.60766 19.3043 4.55078 19.4066 4.49218C22.7666 2.58934 26.5161 1.34728 30.303 0.577947C30.4071 0.556726 30.5114 0.535362 30.6187 0.513424C32.9121 0.0825672 35.2043 -0.00836777 37.5326 0.000581344ZM30.8344 9.13908C30.7419 9.22756 30.6492 9.31593 30.5537 9.40697C28.8356 11.1545 28.2691 13.4663 28.2908 15.8227C28.3555 18.2285 29.4055 20.4185 31.1276 22.1298C33.2909 23.9974 35.7199 24.7802 38.5702 24.6142C40.9658 24.391 43.1 23.1944 44.6862 21.4385C46.5393 19.1221 47.0406 16.7821 46.8148 13.9023C46.4637 11.4606 44.9687 9.54512 43.0947 8.00256C39.2625 5.25488 34.0649 5.81088 30.8344 9.13908ZM9.77419 24.1821C8.1707 26.0493 7.25146 28.4078 7.4095 30.8647C7.67282 33.3112 8.61699 35.5155 10.4666 37.2068C12.7825 39.0381 15.3141 39.6751 18.2259 39.4507C20.617 39.1236 22.7974 37.7415 24.2558 35.8761C25.7948 33.5855 26.3711 31.1633 25.9444 28.4376C25.4309 26.046 23.8962 23.9594 21.8545 22.5989C17.8506 20.2326 13.0026 20.8322 9.77419 24.1821ZM51.3461 24.2516C49.4447 26.5108 48.9182 28.9322 49.1606 31.8006C49.2345 32.3761 49.3704 32.8553 49.6004 33.3883C49.6375 33.4752 49.6746 33.562 49.7128 33.6513C50.7767 36.0825 52.3999 37.8218 54.9149 38.8638C55.1144 38.94 55.1144 38.94 55.3182 39.0176C55.4361 39.064 55.554 39.1103 55.6756 39.1581C58.0542 39.9448 60.6912 39.4957 62.8869 38.4313C65.047 37.214 66.5712 35.3995 67.3444 33.0569C68.0149 30.543 67.8186 28.018 66.5064 25.7204C65.1233 23.5886 63.0572 21.9964 60.5576 21.3411C57.1058 20.6768 53.7777 21.7249 51.3461 24.2516ZM35.2326 34.9761C34.6635 35.7545 34.4599 36.467 34.4996 37.4299C34.7061 38.3865 35.1778 39.0597 35.9842 39.6311C36.7195 40.011 37.5326 40.1298 38.3471 39.9594C39.2643 39.6493 39.9346 39.1665 40.3945 38.3033C40.7002 37.5249 40.7595 36.7339 40.4832 35.9415C40.0837 35.0647 39.5291 34.462 38.6047 34.1101C37.309 33.8042 36.1903 34.0334 35.2326 34.9761ZM17.6762 48.3368C15.8907 50.3887 15.2412 52.8947 15.4031 55.5459C15.6257 57.6914 16.7692 59.7959 18.3725 61.2461C20.7136 63.0881 23.1749 63.7956 26.1428 63.5555C28.7107 63.1312 30.8955 61.7076 32.438 59.6676C33.3528 58.2882 33.928 56.6809 34.0597 55.0396C34.0718 54.898 34.0718 54.898 34.084 54.7537C34.1798 52.4637 33.3135 50.1788 31.7873 48.463C31.5705 48.2465 31.3507 48.0328 31.1276 47.8224C31.0412 47.7329 30.9549 47.6434 30.8659 47.5514C29.2504 45.9888 26.9008 45.2441 24.6746 45.2047C21.9124 45.2979 19.6011 46.4057 17.6762 48.3368ZM43.736 48.1111C43.6451 48.1963 43.5542 48.2813 43.4607 48.3689C41.8899 49.943 41.1265 52.2513 41.0513 54.4173C41.1702 57.0281 42.177 59.4253 44.1088 61.2365C44.7237 61.746 45.3857 62.1532 46.0818 62.5451C46.1813 62.6031 46.2807 62.6611 46.383 62.7207C48.3611 63.7914 50.8171 63.8382 52.9724 63.3213C55.4978 62.5557 57.4913 60.9538 58.7728 58.6736C58.9615 58.2855 59.1242 57.8969 59.2767 57.4934C59.3232 57.3778 59.3702 57.2618 59.4184 57.1425C60.2213 54.8033 59.7612 52.2019 58.6808 50.0418C57.4594 47.9469 55.5767 46.3619 53.225 45.6152C49.7103 44.7165 46.2666 45.5084 43.736 48.1111Z" fill="#FAFAFA"/>
<path d="M85.65 40.4C85.65 36.9333 86.4 33.85 87.9 31.15C89.4 28.4167 91.4833 26.3 94.15 24.8C96.85 23.2667 99.9 22.5 103.3 22.5C107.467 22.5 111.033 23.6 114 25.8C116.967 28 118.95 31 119.95 34.8H110.55C109.85 33.3333 108.85 32.2167 107.55 31.45C106.283 30.6833 104.833 30.3 103.2 30.3C100.567 30.3 98.4333 31.2167 96.8 33.05C95.1667 34.8833 94.35 37.3333 94.35 40.4C94.35 43.4667 95.1667 45.9167 96.8 47.75C98.4333 49.5833 100.567 50.5 103.2 50.5C104.833 50.5 106.283 50.1167 107.55 49.35C108.85 48.5833 109.85 47.4667 110.55 46H119.95C118.95 49.8 116.967 52.8 114 55C111.033 57.1667 107.467 58.25 103.3 58.25C99.9 58.25 96.85 57.5 94.15 56C91.4833 54.4667 89.4 52.35 87.9 49.65C86.4 46.95 85.65 43.8667 85.65 40.4ZM133.736 22.9V58H125.186V22.9H133.736ZM171.332 58H162.782L148.482 36.35V58H139.932V22.9H148.482L162.782 44.65V22.9H171.332V58ZM186.08 29.75V36.85H197.53V43.45H186.08V51.15H199.03V58H177.53V22.9H199.03V29.75H186.08ZM213.13 51.4H224.33V58H204.58V22.9H213.13V51.4ZM236.959 29.75V36.85H248.409V43.45H236.959V51.15H249.909V58H228.409V22.9H249.909V29.75H236.959ZM277.309 51.8H264.209L262.109 58H253.159L265.859 22.9H275.759L288.459 58H279.409L277.309 51.8ZM275.109 45.2L270.759 32.35L266.459 45.2H275.109ZM310.225 58L302.925 44.75H300.875V58H292.325V22.9H306.675C309.441 22.9 311.791 23.3833 313.725 24.35C315.691 25.3167 317.158 26.65 318.125 28.35C319.091 30.0167 319.575 31.8833 319.575 33.95C319.575 36.2833 318.908 38.3667 317.575 40.2C316.275 42.0333 314.341 43.3333 311.775 44.1L319.875 58H310.225ZM300.875 38.7H306.175C307.741 38.7 308.908 38.3167 309.675 37.55C310.475 36.7833 310.875 35.7 310.875 34.3C310.875 32.9667 310.475 31.9167 309.675 31.15C308.908 30.3833 307.741 30 306.175 30H300.875V38.7ZM356.342 58H347.792L333.492 36.35V58H324.942V22.9H333.492L347.792 44.65V22.9H356.342V58Z" fill="#FAFAFA"/>
</svg>
