<svg width="176" height="35" viewBox="0 0 176 35" fill="none" xmlns="http://www.w3.org/2000/svg">
<g clip-path="url(#clip0_208_19)">
<path d="M17.7574 0.000274959C17.8245 0.000411497 17.8916 0.000548035 17.9607 0.000684572C18.9549 0.00375668 19.9222 0.0385058 20.9004 0.226383C20.9938 0.242904 20.9938 0.242904 21.089 0.259697C25.2376 0.998575 29.227 3.32369 31.7905 6.64368C31.8194 6.68062 31.8483 6.71748 31.878 6.7555C32.4111 7.43785 32.8787 8.15195 33.3164 8.89657C33.3438 8.94285 33.3712 8.98908 33.3993 9.03672C34.3139 10.6013 34.9107 12.3473 35.2803 14.1107C35.2906 14.1592 35.3008 14.2077 35.3113 14.2577C35.5185 15.3255 35.5622 16.3931 35.5579 17.4772C35.5576 17.5433 35.5576 17.6094 35.5574 17.6775C35.5538 18.6549 35.5269 19.61 35.3282 20.5706C35.3138 20.6407 35.2998 20.7108 35.2852 20.7829C34.783 23.2122 33.8386 25.5895 32.3454 27.6024C32.3177 27.6397 32.2901 27.6772 32.2617 27.7157C32.0647 27.9788 31.8606 28.2357 31.6519 28.4897C31.6217 28.5268 31.5915 28.5635 31.5605 28.6013C30.469 29.922 29.2313 30.9735 27.8367 31.9716C30.3777 31.994 173.382 31.9485 176 31.9716C176 32.9403 176 33.909 176 34.9071C173.571 34.9119 30.6775 34.9836 28.248 34.9859C27.9605 34.9862 27.6727 34.9864 27.3851 34.9867C27.2992 34.9867 27.2992 34.9867 27.2117 34.9869C26.288 34.9877 25.3641 34.9894 24.4402 34.9912C23.4905 34.9932 22.5407 34.9942 21.591 34.9947C21.0061 34.995 20.4213 34.996 19.8365 34.9975C19.434 34.9985 19.0316 34.999 18.6291 34.9987C18.3978 34.9985 18.1666 34.9987 17.9353 34.9997C12.8915 35.0206 8.46197 33.0889 4.89909 29.6163C4.49312 29.2157 4.11577 28.8042 3.76755 28.3533C3.7387 28.3165 3.70979 28.2795 3.68001 28.2415C3.1471 27.5591 2.67937 26.845 2.24156 26.1004C2.21423 26.0541 2.1869 26.008 2.15874 25.9604C1.24432 24.3957 0.647442 22.6497 0.277735 20.8864C0.267538 20.8379 0.257272 20.7893 0.246728 20.7394C0.0396775 19.6714 -0.00402117 18.604 0.00027937 17.5198C0.000418095 17.4538 0.000556595 17.3877 0.000695323 17.3198C0.00381669 16.3412 0.0391227 15.3892 0.230012 14.4264C0.246798 14.3345 0.246798 14.3345 0.263862 14.2408C1.01458 10.1576 3.37697 6.23121 6.75019 3.70811C6.78772 3.67971 6.82519 3.65123 6.86382 3.62195C7.5571 3.09745 8.28264 2.63711 9.03921 2.20619C9.08623 2.17929 9.1332 2.15239 9.1816 2.12468C10.7713 1.22468 12.5453 0.637227 14.3369 0.273353C14.3862 0.263316 14.4355 0.253211 14.4863 0.242835C15.5713 0.0390519 16.6558 -0.00395772 17.7574 0.000274959ZM14.5883 4.32253C14.5445 4.36437 14.5007 4.40617 14.4555 4.44923C13.6427 5.27578 13.3746 6.36917 13.3849 7.48368C13.4155 8.62158 13.9123 9.65736 14.727 10.4668C15.7505 11.3501 16.8998 11.7203 18.2483 11.6418C19.3817 11.5363 20.3914 10.9703 21.1418 10.1398C22.0186 9.04423 22.2558 7.93745 22.1489 6.57542C21.9828 5.42052 21.2755 4.51457 20.3889 3.78499C18.5758 2.48541 16.1167 2.74838 14.5883 4.32253ZM4.62435 11.4375C3.86571 12.3206 3.4308 13.4361 3.50557 14.5981C3.63015 15.7552 4.07686 16.7978 4.95194 17.5977C6.04762 18.4639 7.24539 18.7652 8.62303 18.6591C9.75426 18.5044 10.7859 17.8507 11.4759 16.9684C12.204 15.885 12.4767 14.7394 12.2747 13.4502C12.0318 12.319 11.3057 11.3321 10.3398 10.6886C8.44544 9.56943 6.15179 9.85303 4.62435 11.4375ZM24.2928 11.4703C23.3932 12.5389 23.1441 13.6841 23.2588 15.0408C23.2937 15.313 23.358 15.5396 23.4668 15.7917C23.4844 15.8328 23.502 15.8739 23.52 15.9161C24.0234 17.066 24.7913 17.8887 25.9812 18.3815C26.0756 18.4175 26.0756 18.4175 26.1721 18.4542C26.2278 18.4762 26.2836 18.4981 26.3412 18.5207C27.4665 18.8927 28.7141 18.6804 29.753 18.1769C30.7749 17.6012 31.4961 16.7429 31.8619 15.635C32.1791 14.446 32.0862 13.2517 31.4654 12.165C30.811 11.1568 29.8335 10.4037 28.6509 10.0937C27.0178 9.77955 25.4432 10.2753 24.2928 11.4703ZM16.6692 16.5427C16.3999 16.9109 16.3036 17.2479 16.3224 17.7033C16.4201 18.1557 16.6433 18.4741 17.0248 18.7444C17.3727 18.9241 17.7574 18.9803 18.1427 18.8996C18.5766 18.753 18.8938 18.5246 19.1114 18.1164C19.256 17.7482 19.2841 17.3741 19.1533 16.9993C18.9643 16.5846 18.7019 16.2996 18.2646 16.1331C17.6515 15.9884 17.1223 16.0969 16.6692 16.5427ZM8.36292 22.8619C7.51819 23.8324 7.21091 25.0177 7.2875 26.2717C7.39279 27.2864 7.93381 28.2818 8.69238 28.9677C9.79998 29.8389 10.9645 30.1735 12.3687 30.06C13.5836 29.8593 14.6172 29.186 15.347 28.2211C15.7798 27.5687 16.0519 26.8085 16.1143 26.0322C16.12 25.9652 16.12 25.9652 16.1257 25.897C16.1711 24.8139 15.7612 23.7332 15.0391 22.9217C14.9366 22.8192 14.8326 22.7181 14.727 22.6187C14.6862 22.5763 14.6453 22.534 14.6032 22.4905C13.8389 21.7514 12.7273 21.3992 11.674 21.3805C10.3672 21.4246 9.27364 21.9486 8.36292 22.8619ZM20.6923 22.7552C20.6493 22.7955 20.6063 22.8357 20.562 22.8771C19.8189 23.6216 19.4577 24.7134 19.4221 25.7378C19.4784 26.9727 19.9547 28.1065 20.8687 28.9631C21.1596 29.2041 21.4728 29.3967 21.8021 29.5821C21.8492 29.6095 21.8962 29.6369 21.9447 29.6651C22.8805 30.1715 24.0425 30.1937 25.0622 29.9492C26.257 29.5871 27.2002 28.8294 27.8065 27.751C27.8957 27.5674 27.9727 27.3836 28.0449 27.1927C28.0669 27.1381 28.0891 27.0832 28.1119 27.0268C28.4918 25.9204 28.2741 24.69 27.763 23.6684C27.1851 22.6775 26.2943 21.9279 25.1817 21.5747C23.5189 21.1496 21.8896 21.5242 20.6923 22.7552Z" fill="#050505"/>
<path d="M54.2448 23.8565L54.0975 25.331C53.6391 25.5244 53.0824 25.6936 52.4275 25.8386C51.7726 25.9837 51.1096 26.0884 50.4383 26.1529C49.7671 26.2334 49.1695 26.2737 48.6456 26.2737C47.3194 26.2737 46.0915 26.0562 44.9618 25.6211C43.8322 25.1698 42.8417 24.5494 41.9903 23.7598C41.1553 22.9701 40.5005 22.0435 40.0257 20.9799C39.5509 19.9002 39.3135 18.7319 39.3135 17.4749C39.3135 16.2179 39.5509 15.0576 40.0257 13.994C40.5005 12.9143 41.1553 11.9796 41.9903 11.19C42.8417 10.4003 43.8322 9.78797 44.9618 9.35286C46.0915 8.90164 47.3194 8.67603 48.6456 8.67603C49.1859 8.67603 49.7916 8.71631 50.4629 8.79689C51.1341 8.87746 51.789 8.99027 52.4275 9.13531C53.066 9.26423 53.6063 9.41732 54.0484 9.59459L53.9256 10.9483H53.7782C53.1725 10.4003 52.4112 9.98135 51.4943 9.69128C50.5775 9.4012 49.6279 9.25617 48.6456 9.25617C47.1721 9.25617 45.8705 9.60264 44.7408 10.2956C43.6275 10.9724 42.7516 11.9313 42.1131 13.1721C41.491 14.3969 41.1799 15.8311 41.1799 17.4749C41.1799 19.1347 41.491 20.577 42.1131 21.8018C42.7516 23.0265 43.6275 23.9854 44.7408 24.6783C45.8541 25.3552 47.1557 25.6936 48.6456 25.6936C49.7589 25.6936 50.7903 25.5163 51.7399 25.1618C52.7058 24.8072 53.4917 24.3721 54.0975 23.8565H54.2448ZM59.1518 25.9353V9.01444H60.8218V25.9353H59.1518ZM66.8416 25.9353L67.4556 8.67603H67.7503L80.103 23.373H80.2504L79.7101 9.01444H81.38L80.7661 26.2737H80.4714L68.1186 11.5767H67.9713L68.5116 25.9353H66.8416ZM87.4034 25.9353V9.01444H94.8937V10.1989L90.596 9.64293C89.8429 9.54624 89.3353 9.4979 89.0734 9.4979V16.8706C89.2862 16.8706 89.7938 16.8464 90.596 16.798L94.6235 16.5563V17.6683L90.596 17.4265C89.7938 17.3782 89.2862 17.354 89.0734 17.354V25.4519C89.3681 25.4519 89.8838 25.4035 90.6205 25.3068L94.9673 24.7508V25.9353H87.4034ZM100.114 9.01444H101.784V25.4519C102.095 25.4519 102.586 25.4035 103.258 25.3068L107.334 24.7025V25.9353H100.114V9.01444ZM111.434 25.9353V9.01444H118.924V10.1989L114.626 9.64293C113.873 9.54624 113.366 9.4979 113.104 9.4979V16.8706C113.317 16.8706 113.824 16.8464 114.626 16.798L118.654 16.5563V17.6683L114.626 17.4265C113.824 17.3782 113.317 17.354 113.104 17.354V25.4519C113.398 25.4519 113.914 25.4035 114.651 25.3068L118.998 24.7508V25.9353H111.434ZM121.591 25.9353L128.197 9.01444H129.719L136.326 25.9353H134.533L131.488 18.0067H125.913L123.383 25.9353H121.591ZM128.369 10.2714L126.085 17.4265H131.267L128.516 10.2714H128.369ZM140.309 9.01444H143.6C145.335 9.01444 146.678 9.37703 147.627 10.1022C148.593 10.8113 149.076 11.8104 149.076 13.0996C149.076 14.0988 148.773 14.9287 148.167 15.5894C147.578 16.2501 146.718 16.6933 145.589 16.9189V17.0639C146.669 17.2734 147.553 17.773 148.241 18.5626C148.929 19.3523 149.444 20.3272 149.788 21.4875C150.099 22.5511 150.402 23.3811 150.697 23.9773C151.008 24.5575 151.344 24.9765 151.704 25.2343C152.08 25.4921 152.522 25.6775 153.03 25.7903V25.9353H152.023C151.303 25.9353 150.705 25.8064 150.23 25.5485C149.772 25.2907 149.379 24.8556 149.052 24.2432C148.724 23.6308 148.413 22.7848 148.118 21.7051C147.644 20.0452 147.013 18.8688 146.227 18.1759C145.441 17.4829 144.484 17.1365 143.354 17.1365H143.207V16.7014H143.354C145.99 16.7014 147.308 15.5088 147.308 13.1238C147.308 10.771 146.072 9.59459 143.6 9.59459H141.979V25.9353H140.309V9.01444ZM155.697 25.9353L156.311 8.67603H156.606L168.958 23.373H169.106L168.566 9.01444H170.235L169.622 26.2737H169.327L156.974 11.5767H156.827L157.367 25.9353H155.697Z" fill="#050505"/>
</g>
<defs>
<clipPath id="clip0_208_19">
<rect width="176" height="35" fill="white"/>
</clipPath>
</defs>
</svg>
